<svg width="304" height="72" viewBox="0 0 304 72" fill="none" xmlns="http://www.w3.org/2000/svg">
<path d="M284.458 57.5541C282.372 57.5541 280.52 57.2061 278.902 56.51C277.299 55.7998 276.029 54.7345 275.092 53.314C274.17 51.8793 273.708 50.0825 273.708 47.9234C273.708 46.1052 274.028 44.5711 274.666 43.3211C275.305 42.0711 276.185 41.0555 277.306 40.2742C278.427 39.493 279.718 38.9035 281.18 38.5058C282.642 38.0938 284.203 37.8168 285.863 37.6748C287.722 37.5043 289.22 37.3268 290.355 37.1421C291.49 36.9433 292.313 36.6663 292.824 36.3112C293.349 35.9418 293.612 35.4234 293.612 34.7558V34.6492C293.612 33.5555 293.236 32.7103 292.484 32.1137C291.731 31.5171 290.717 31.2188 289.44 31.2188C288.063 31.2188 286.956 31.5171 286.119 32.1137C285.281 32.7103 284.749 33.5342 284.522 34.5853L274.922 34.2444C275.206 32.2558 275.936 30.4802 277.114 28.9177C278.306 27.341 279.938 26.1052 282.01 25.2103C284.096 24.3012 286.601 23.8467 289.525 23.8467C291.611 23.8467 293.534 24.0953 295.294 24.5924C297.053 25.0754 298.586 25.7856 299.892 26.7231C301.197 27.6464 302.205 28.7828 302.914 30.1322C303.638 31.4816 304 33.0228 304 34.7558V57.0001H294.208V52.4404H293.952C293.371 53.5484 292.626 54.4859 291.717 55.2529C290.823 56.02 289.766 56.5953 288.546 56.9788C287.339 57.3623 285.977 57.5541 284.458 57.5541ZM287.673 50.7359C288.794 50.7359 289.801 50.5086 290.696 50.0541C291.604 49.5995 292.328 48.9745 292.867 48.1791C293.406 47.3694 293.676 46.4319 293.676 45.3666V42.2558C293.378 42.412 293.016 42.5541 292.59 42.6819C292.179 42.8097 291.724 42.9305 291.228 43.0441C290.731 43.1578 290.22 43.2572 289.695 43.3424C289.17 43.4276 288.666 43.5058 288.184 43.5768C287.204 43.733 286.367 43.9745 285.672 44.3012C284.991 44.6279 284.465 45.0541 284.096 45.5796C283.742 46.091 283.564 46.7018 283.564 47.412C283.564 48.4916 283.947 49.3154 284.714 49.8836C285.494 50.4518 286.481 50.7359 287.673 50.7359Z" fill="#2B823F"/>
<path d="M251.732 57.5541C249.646 57.5541 247.794 57.2061 246.176 56.51C244.572 55.7998 243.302 54.7345 242.365 53.314C241.443 51.8793 240.982 50.0825 240.982 47.9234C240.982 46.1052 241.301 44.5711 241.94 43.3211C242.578 42.0711 243.458 41.0555 244.579 40.2742C245.7 39.493 246.992 38.9035 248.453 38.5058C249.915 38.0938 251.476 37.8168 253.137 37.6748C254.996 37.5043 256.493 37.3268 257.628 37.1421C258.764 36.9433 259.587 36.6663 260.098 36.3112C260.623 35.9418 260.885 35.4234 260.885 34.7558V34.6492C260.885 33.5555 260.509 32.7103 259.757 32.1137C259.005 31.5171 257.99 31.2188 256.713 31.2188C255.336 31.2188 254.229 31.5171 253.392 32.1137C252.555 32.7103 252.023 33.5342 251.796 34.5853L242.195 34.2444C242.479 32.2558 243.21 30.4802 244.388 28.9177C245.58 27.341 247.212 26.1052 249.284 25.2103C251.37 24.3012 253.875 23.8467 256.798 23.8467C258.884 23.8467 260.807 24.0953 262.567 24.5924C264.327 25.0754 265.859 25.7856 267.165 26.7231C268.471 27.6464 269.478 28.7828 270.188 30.1322C270.911 31.4816 271.273 33.0228 271.273 34.7558V57.0001H261.481V52.4404H261.226C260.644 53.5484 259.899 54.4859 258.991 55.2529C258.097 56.02 257.039 56.5953 255.819 56.9788C254.613 57.3623 253.25 57.5541 251.732 57.5541ZM254.946 50.7359C256.067 50.7359 257.075 50.5086 257.969 50.0541C258.877 49.5995 259.601 48.9745 260.14 48.1791C260.679 47.3694 260.949 46.4319 260.949 45.3666V42.2558C260.651 42.412 260.289 42.5541 259.863 42.6819C259.452 42.8097 258.998 42.9305 258.501 43.0441C258.004 43.1578 257.493 43.2572 256.968 43.3424C256.443 43.4276 255.939 43.5058 255.457 43.5768C254.478 43.733 253.64 43.9745 252.945 44.3012C252.264 44.6279 251.739 45.0541 251.37 45.5796C251.015 46.091 250.838 46.7018 250.838 47.412C250.838 48.4916 251.221 49.3154 251.987 49.8836C252.768 50.4518 253.754 50.7359 254.946 50.7359Z" fill="#2B823F"/>
<path d="M218.511 57.4689C216.098 57.4689 213.905 56.8439 211.933 55.5939C209.96 54.3439 208.385 52.4689 207.207 49.9689C206.029 47.4689 205.44 44.3652 205.44 40.6578C205.44 36.8084 206.05 33.6408 207.271 31.155C208.491 28.6692 210.088 26.8297 212.061 25.6365C214.047 24.4433 216.183 23.8467 218.468 23.8467C220.185 23.8467 221.654 24.145 222.874 24.7416C224.095 25.324 225.103 26.0768 225.897 27.0001C226.692 27.9234 227.295 28.8822 227.707 29.8766H227.92V13.3638H238.329V57.0001H228.026V51.6947H227.707C227.267 52.7033 226.642 53.6479 225.833 54.5285C225.024 55.4092 224.01 56.1195 222.789 56.6592C221.583 57.199 220.157 57.4689 218.511 57.4689ZM222.129 49.351C223.392 49.351 224.471 48.9959 225.365 48.2856C226.259 47.5612 226.947 46.5456 227.43 45.2388C227.912 43.932 228.154 42.3979 228.154 40.6365C228.154 38.8467 227.912 37.3055 227.43 36.0129C226.962 34.7203 226.273 33.726 225.365 33.03C224.471 32.3339 223.392 31.9859 222.129 31.9859C220.838 31.9859 219.745 32.341 218.851 33.0513C217.957 33.7615 217.276 34.7629 216.808 36.0555C216.353 37.3481 216.126 38.8751 216.126 40.6365C216.126 42.3979 216.361 43.932 216.829 45.2388C217.297 46.5456 217.971 47.5612 218.851 48.2856C219.745 48.9959 220.838 49.351 222.129 49.351Z" fill="#2B823F"/>
<path d="M171.563 57.618C168.143 57.618 165.191 56.9433 162.708 55.5938C160.238 54.2302 158.337 52.2913 157.003 49.7771C155.683 47.2487 155.023 44.2444 155.023 40.7643C155.023 37.3836 155.69 34.4291 157.024 31.9007C158.358 29.358 160.238 27.3836 162.665 25.9774C165.092 24.5569 167.951 23.8467 171.244 23.8467C173.571 23.8467 175.7 24.2089 177.63 24.9333C179.56 25.6578 181.227 26.7302 182.632 28.1507C184.037 29.5711 185.13 31.3254 185.911 33.4134C186.691 35.4873 187.081 37.8666 187.081 40.5512V43.1507H158.663V37.0995H177.396C177.381 35.9916 177.119 35.0043 176.608 34.1379C176.097 33.2714 175.395 32.5967 174.501 32.1137C173.621 31.6166 172.606 31.368 171.457 31.368C170.293 31.368 169.25 31.6308 168.327 32.1563C167.405 32.6677 166.674 33.3708 166.135 34.2657C165.595 35.1464 165.312 36.1478 165.283 37.27V43.4276C165.283 44.7629 165.546 45.9347 166.071 46.9433C166.596 47.9376 167.341 48.7117 168.306 49.2657C169.271 49.8197 170.421 50.0967 171.755 50.0967C172.677 50.0967 173.514 49.9688 174.266 49.7132C175.019 49.4575 175.664 49.0811 176.204 48.5839C176.743 48.0867 177.147 47.4759 177.417 46.7515L186.975 47.0285C186.578 49.1734 185.705 51.0413 184.357 52.6322C183.023 54.2089 181.27 55.4376 179.099 56.3183C176.927 57.1847 174.415 57.618 171.563 57.618Z" fill="#2B823F"/>
<path d="M137.842 57.618C134.422 57.618 131.47 56.9433 128.987 55.5938C126.517 54.2302 124.616 52.2913 123.282 49.7771C121.962 47.2487 121.302 44.2444 121.302 40.7643C121.302 37.3836 121.969 34.4291 123.303 31.9007C124.637 29.358 126.517 27.3836 128.944 25.9774C131.371 24.5569 134.23 23.8467 137.523 23.8467C139.85 23.8467 141.979 24.2089 143.909 24.9333C145.839 25.6578 147.507 26.7302 148.911 28.1507C150.316 29.5711 151.409 31.3254 152.19 33.4134C152.97 35.4873 153.361 37.8666 153.361 40.5512V43.1507H124.942V37.0995H143.675C143.661 35.9916 143.398 35.0043 142.887 34.1379C142.376 33.2714 141.674 32.5967 140.78 32.1137C139.9 31.6166 138.885 31.368 137.736 31.368C136.572 31.368 135.529 31.6308 134.606 32.1563C133.684 32.6677 132.953 33.3708 132.414 34.2657C131.875 35.1464 131.591 36.1478 131.562 37.27V43.4276C131.562 44.7629 131.825 45.9347 132.35 46.9433C132.875 47.9376 133.62 48.7117 134.585 49.2657C135.55 49.8197 136.7 50.0967 138.034 50.0967C138.956 50.0967 139.793 49.9688 140.546 49.7132C141.298 49.4575 141.943 49.0811 142.483 48.5839C143.022 48.0867 143.426 47.4759 143.696 46.7515L153.254 47.0285C152.857 49.1734 151.984 51.0413 150.636 52.6322C149.302 54.2089 147.549 55.4376 145.378 56.3183C143.207 57.1847 140.695 57.618 137.842 57.618Z" fill="#2B823F"/>
<path d="M96.6648 69.2729C95.416 69.2729 94.2381 69.1735 93.1312 68.9747C92.0242 68.79 91.0734 68.5414 90.2787 68.2289L92.5777 60.665C93.5995 61.0059 94.5219 61.2048 95.345 61.2616C96.1823 61.3184 96.899 61.1835 97.495 60.8568C98.1053 60.5443 98.5736 59.9832 98.9 59.1735L99.3044 58.1934L87.6816 24.2729H98.5807L104.605 47.6252H104.946L111.055 24.2729H122.018L109.693 60.1323C109.097 61.9221 108.252 63.4988 107.159 64.8624C106.081 66.2403 104.683 67.3198 102.966 68.1011C101.263 68.8823 99.1625 69.2729 96.6648 69.2729Z" fill="#2B823F"/>
<path d="M202.893 36.4999C204.701 39.8152 204.242 46.3437 200.894 47.998C197.259 49.744 190.903 47.998 188.3 44.0052C191.902 43.998 194.159 43.3389 196.899 42.4999C199.895 40.998 201.859 38.975 202.893 36.4999Z" fill="#29813F"/>
<path d="M65.3525 34.1304C65.3525 33.5757 65.4028 33.1723 65.0507 32.7184C64.4471 31.9116 63.7429 31.1552 63.0387 30.4493C61.9321 29.4407 60.4734 28.6339 59.1656 27.9784C56.2482 26.516 53.1296 25.5075 49.9607 24.8015C43.3211 23.3391 36.3797 23.087 29.5892 23.3895C26.8227 23.5408 24.0562 23.6921 21.34 24.1964C20.2837 24.3981 19.2274 24.5998 18.2214 24.9528C17.1148 25.3057 15.9579 25.7092 15.0525 26.4151C14.7507 26.6168 14.4992 26.869 14.2477 27.1211C14.0465 27.3732 13.8453 27.6758 13.6944 27.9784C13.5435 28.2305 13.3423 28.4826 13.2417 28.7852C13.1411 29.0373 13.0908 29.239 13.0908 29.4407C13.0908 29.6929 13.1914 29.8946 13.1914 30.0963C13.1914 30.1467 14.7507 30.298 14.9016 30.3484C15.5052 30.4493 16.1088 30.4997 16.7124 30.5501C18.9256 30.8022 21.1891 31.0039 23.4023 31.2057C28.0299 31.6091 32.7078 32.0629 37.3857 32.4663C41.8624 32.8697 46.2888 33.2227 50.7655 33.6766C55.2925 34.1304 59.7692 34.7355 64.3465 34.6347C64.598 34.6347 64.8998 34.6347 65.1513 34.6347C65.5034 34.6347 65.3525 34.4834 65.3525 34.1304ZM25 27.5002C24.2455 27.9541 24 28.0002 23.2514 28.6843C21.9939 29.9954 19.7807 29.2894 18.1208 29.1382C17.8693 29.1382 17.6178 29.0877 17.316 29.0373C17.0142 28.9869 16.5112 29.0877 16.5615 28.7852C16.5615 28.3818 16.6621 28.0792 16.813 27.6758C17.0142 27.222 17.819 27.0203 18.2717 26.8185C18.8753 26.5664 19.4789 26.3647 20.1328 26.2134C22.4969 25.5579 25.0119 25.1545 27.4766 25.2049C27.5772 25.2049 27.6778 25.2049 27.7784 25.2049C26.8227 25.8604 26 26.8987 25 27.5002Z" fill="#29813F"/>
<path d="M13.5964 10.1862C11.0311 10.0349 8.76765 7.56398 9.01915 4.99222C9.32095 2.21877 12.1377 0.252133 14.7533 0C13.7473 1.61365 12.0874 2.97516 11.5844 4.89137C11.0311 6.85801 12.5401 8.67336 13.5964 10.1862Z" fill="#29813F"/>
<path d="M16.3096 20.7162C17.6677 17.3881 19.9815 14.5642 21.3899 11.236C22.1444 9.4711 22.3959 7.70617 20.6857 6.49594C19.3779 5.53783 17.8186 5.03357 16.3599 4.47888C18.1707 3.72248 20.5348 3.67205 22.3456 4.47888C24.5085 5.43698 25.7157 7.65575 25.4139 9.97537C25.1121 12.5471 23.5528 14.8667 21.7923 16.7325C20.1827 18.3462 18.3216 19.7581 16.3096 20.7162Z" fill="#29813F"/>
<path d="M8.31296 33.6263C3.53447 33.3741 -1.49553 28.8862 0.415872 23.7931C2.02547 19.5068 7.25666 16.9351 11.4819 16.3804C9.11776 19.1539 5.64707 21.2213 3.93687 24.5495C2.12607 28.1802 5.99917 31.3571 8.31296 33.6263Z" fill="#29813F"/>
<path d="M45.8871 22.5828L36.3301 21.6247C35.7265 21.5743 35.2738 21.0196 35.3744 20.4145L35.7265 16.7838C35.7768 16.1786 36.3301 15.7248 36.9337 15.8257L46.4907 16.7838C47.0943 16.8342 47.547 17.3889 47.4464 17.994L47.0943 21.6247C47.044 22.2298 46.4907 22.6332 45.8871 22.5828Z" fill="#2B823F"/>
<path d="M71.9933 43.2066L71.8927 42.1477C71.7418 40.8366 70.5849 39.8785 69.2771 40.0297L63.392 40.6349C63.3417 39.7272 62.6375 38.9708 61.7321 38.9708H14.7519C13.8465 38.9708 13.092 39.7272 13.092 40.6853V41.593L7.55903 41.0383C6.25123 40.887 5.09433 41.8451 4.94343 43.1562L4.84283 44.2151C4.69193 45.5262 5.64763 46.686 6.95543 46.8373L13.092 47.4929V48.5014V49.8125V63.9823C13.092 68.4199 15.6573 72.0002 18.8262 72.0002H57.6578C60.8267 72.0002 63.392 68.4199 63.392 63.9823V49.8125V48.5014V46.4843L69.8304 45.8288C71.1382 45.7279 72.0939 44.5177 71.9933 43.2066ZM27.8802 68.1677H21.0897C21.0394 68.1677 20.9891 68.1677 20.9388 68.1677H20.8382C18.7759 68.1677 17.116 66.1003 17.116 63.5285V49.6108C17.116 49.4595 17.116 49.3586 17.116 49.2074V46.2322C17.116 45.5262 17.7196 44.9211 18.4238 44.9211H20.8382H20.9388H21.0897H25.9185H27.8802V68.1677Z" fill="#2B823F"/>
</svg>
