<svg width="32" height="32" viewBox="0 0 32 32" fill="none" xmlns="http://www.w3.org/2000/svg">
<rect width="32" height="32" rx="16" fill="black"/>
<path d="M16 9C16.2321 9 16.4546 9.09219 16.6187 9.25628C16.7828 9.42038 16.875 9.64294 16.875 9.875V15.125H22.125C22.3571 15.125 22.5796 15.2172 22.7437 15.3813C22.9078 15.5454 23 15.7679 23 16C23 16.2321 22.9078 16.4546 22.7437 16.6187C22.5796 16.7828 22.3571 16.875 22.125 16.875H16.875V22.125C16.875 22.3571 16.7828 22.5796 16.6187 22.7437C16.4546 22.9078 16.2321 23 16 23C15.7679 23 15.5454 22.9078 15.3813 22.7437C15.2172 22.5796 15.125 22.3571 15.125 22.125V16.875H9.875C9.64294 16.875 9.42038 16.7828 9.25628 16.6187C9.09219 16.4546 9 16.2321 9 16C9 15.7679 9.09219 15.5454 9.25628 15.3813C9.42038 15.2172 9.64294 15.125 9.875 15.125H15.125V9.875C15.125 9.64294 15.2172 9.42038 15.3813 9.25628C15.5454 9.09219 15.7679 9 16 9V9Z" fill="#FFFFD3"/>
</svg>
