<svg width="12" height="12" viewBox="0 0 12 12" fill="none" xmlns="http://www.w3.org/2000/svg">
<path d="M6 11.25C4.60761 11.25 3.27226 10.6969 2.28769 9.71231C1.30312 8.72774 0.75 7.39239 0.75 6C0.75 4.60761 1.30312 3.27226 2.28769 2.28769C3.27226 1.30312 4.60761 0.75 6 0.75C7.39239 0.75 8.72774 1.30312 9.71231 2.28769C10.6969 3.27226 11.25 4.60761 11.25 6C11.25 7.39239 10.6969 8.72774 9.71231 9.71231C8.72774 10.6969 7.39239 11.25 6 11.25ZM6 12C7.5913 12 9.11742 11.3679 10.2426 10.2426C11.3679 9.11742 12 7.5913 12 6C12 4.4087 11.3679 2.88258 10.2426 1.75736C9.11742 0.632141 7.5913 0 6 0C4.4087 0 2.88258 0.632141 1.75736 1.75736C0.632141 2.88258 0 4.4087 0 6C0 7.5913 0.632141 9.11742 1.75736 10.2426C2.88258 11.3679 4.4087 12 6 12V12Z" fill="black"/>
<path d="M8.48629 7.51048C8.55748 7.49371 8.63202 7.49814 8.70073 7.5232C8.76945 7.54827 8.82933 7.59288 8.87301 7.65154C8.91669 7.71021 8.94226 7.78037 8.94657 7.85338C8.95089 7.92639 8.93375 7.99908 8.89729 8.06248C8.60113 8.57574 8.175 9.00194 7.66178 9.29818C7.14856 9.59442 6.56636 9.75024 5.97379 9.74998C5.38121 9.75024 4.79901 9.59442 4.28579 9.29818C3.77258 9.00194 3.34644 8.57574 3.05029 8.06248C3.01382 7.99908 2.99668 7.92639 3.001 7.85338C3.00531 7.78037 3.03088 7.71021 3.07456 7.65154C3.11824 7.59288 3.17812 7.54827 3.24684 7.5232C3.31555 7.49814 3.39009 7.49371 3.46129 7.51048H3.46504L3.47779 7.51423L3.52804 7.52548L3.71704 7.56673C3.87829 7.60123 4.10329 7.64773 4.35979 7.69348C4.87954 7.78648 5.50129 7.87498 5.97379 7.87498C6.44629 7.87498 7.06879 7.78648 7.58779 7.69348C7.8662 7.64338 8.14351 7.58737 8.41954 7.52548L8.46979 7.51423L8.48254 7.51123L8.48629 7.50973V7.51048ZM3.56704 3.42448C4.13929 2.35648 6.58204 3.33448 4.28104 5.99998C0.909036 4.80298 2.51854 2.77648 3.56704 3.42448ZM8.43304 3.42448C9.48154 2.77648 11.091 4.80298 7.71904 5.99998C5.41879 3.33448 7.86154 2.35648 8.43304 3.42448Z" fill="black"/>
</svg>
