<svg width="40" height="40" viewBox="0 0 40 40" fill="none" xmlns="http://www.w3.org/2000/svg">
<rect width="40" height="40" rx="20" fill="black"/>
<path fill-rule="evenodd" clip-rule="evenodd" d="M14 25.5V19H15V25.5C15 25.6326 15.0527 25.7598 15.1464 25.8536C15.2402 25.9473 15.3674 26 15.5 26H24.5C24.6326 26 24.7598 25.9473 24.8536 25.8536C24.9473 25.7598 25 25.6326 25 25.5V19H26V25.5C26 25.8978 25.842 26.2794 25.5607 26.5607C25.2794 26.842 24.8978 27 24.5 27H15.5C15.1022 27 14.7206 26.842 14.4393 26.5607C14.158 26.2794 14 25.8978 14 25.5V25.5ZM25 14.5V18L23 16V14.5C23 14.3674 23.0527 14.2402 23.1464 14.1464C23.2402 14.0527 23.3674 14 23.5 14H24.5C24.6326 14 24.7598 14.0527 24.8536 14.1464C24.9473 14.2402 25 14.3674 25 14.5Z" fill="#FFFFD3"/>
<path fill-rule="evenodd" clip-rule="evenodd" d="M19.2927 13.4998C19.4802 13.3123 19.7345 13.207 19.9997 13.207C20.2648 13.207 20.5191 13.3123 20.7067 13.4998L27.3537 20.1458C27.4475 20.2397 27.5003 20.367 27.5003 20.4998C27.5003 20.6326 27.4475 20.7599 27.3537 20.8538C27.2598 20.9477 27.1324 21.0004 26.9997 21.0004C26.8669 21.0004 26.7395 20.9477 26.6457 20.8538L19.9997 14.2068L13.3537 20.8538C13.2598 20.9477 13.1324 21.0004 12.9997 21.0004C12.8669 21.0004 12.7395 20.9477 12.6457 20.8538C12.5518 20.7599 12.499 20.6326 12.499 20.4998C12.499 20.367 12.5518 20.2397 12.6457 20.1458L19.2927 13.4998Z" fill="#FFFFD3"/>
</svg>
