<svg width="48" height="48" viewBox="0 0 48 48" fill="none" xmlns="http://www.w3.org/2000/svg">
<rect width="48" height="48" rx="6" fill="black"/>
<path fill-rule="evenodd" clip-rule="evenodd" d="M34.4999 24C34.4999 23.8011 34.4209 23.6103 34.2802 23.4697C34.1396 23.329 33.9488 23.25 33.7499 23.25H16.0604L20.7809 18.531C20.8506 18.4613 20.9059 18.3785 20.9437 18.2874C20.9814 18.1963 21.0008 18.0986 21.0008 18C21.0008 17.9014 20.9814 17.8037 20.9437 17.7126C20.9059 17.6215 20.8506 17.5387 20.7809 17.469C20.7111 17.3993 20.6284 17.344 20.5373 17.3062C20.4461 17.2685 20.3485 17.2491 20.2499 17.2491C20.1513 17.2491 20.0536 17.2685 19.9625 17.3062C19.8714 17.344 19.7886 17.3993 19.7189 17.469L13.7189 23.469C13.649 23.5387 13.5936 23.6214 13.5558 23.7126C13.518 23.8037 13.4985 23.9014 13.4985 24C13.4985 24.0987 13.518 24.1963 13.5558 24.2875C13.5936 24.3786 13.649 24.4613 13.7189 24.531L19.7189 30.531C19.7886 30.6007 19.8714 30.656 19.9625 30.6938C20.0536 30.7315 20.1513 30.7509 20.2499 30.7509C20.3485 30.7509 20.4461 30.7315 20.5373 30.6938C20.6284 30.656 20.7111 30.6007 20.7809 30.531C20.8506 30.4613 20.9059 30.3785 20.9437 30.2874C20.9814 30.1963 21.0008 30.0986 21.0008 30C21.0008 29.9014 20.9814 29.8037 20.9437 29.7126C20.9059 29.6215 20.8506 29.5387 20.7809 29.469L16.0604 24.75H33.7499C33.9488 24.75 34.1396 24.671 34.2802 24.5303C34.4209 24.3897 34.4999 24.1989 34.4999 24Z" fill="#FFFFD3"/>
</svg>
