<svg width="12" height="12" viewBox="0 0 12 12" fill="none" xmlns="http://www.w3.org/2000/svg">
<path d="M11.25 10.5C11.25 10.5 12 10.5 12 9.75C12 9 11.25 6.75 8.25 6.75C5.25 6.75 4.5 9 4.5 9.75C4.5 10.5 5.25 10.5 5.25 10.5H11.25ZM5.2665 9.75C5.26096 9.74924 5.25545 9.74824 5.25 9.747C5.25075 9.549 5.37525 8.9745 5.82 8.457C6.234 7.97175 6.9615 7.5 8.25 7.5C9.53775 7.5 10.2652 7.9725 10.68 8.457C11.1247 8.9745 11.2485 9.54975 11.25 9.747L11.244 9.7485C11.2405 9.74909 11.237 9.74959 11.2335 9.75H5.2665V9.75ZM8.25 5.25C8.64782 5.25 9.02936 5.09196 9.31066 4.81066C9.59196 4.52936 9.75 4.14782 9.75 3.75C9.75 3.35218 9.59196 2.97064 9.31066 2.68934C9.02936 2.40804 8.64782 2.25 8.25 2.25C7.85218 2.25 7.47064 2.40804 7.18934 2.68934C6.90804 2.97064 6.75 3.35218 6.75 3.75C6.75 4.14782 6.90804 4.52936 7.18934 4.81066C7.47064 5.09196 7.85218 5.25 8.25 5.25ZM10.5 3.75C10.5 4.04547 10.4418 4.33806 10.3287 4.61104C10.2157 4.88402 10.0499 5.13206 9.84099 5.34099C9.63206 5.54992 9.38402 5.71566 9.11104 5.82873C8.83806 5.9418 8.54547 6 8.25 6C7.95453 6 7.66194 5.9418 7.38896 5.82873C7.11598 5.71566 6.86794 5.54992 6.65901 5.34099C6.45008 5.13206 6.28434 4.88402 6.17127 4.61104C6.0582 4.33806 6 4.04547 6 3.75C6 3.15326 6.23705 2.58097 6.65901 2.15901C7.08097 1.73705 7.65326 1.5 8.25 1.5C8.84674 1.5 9.41903 1.73705 9.84099 2.15901C10.2629 2.58097 10.5 3.15326 10.5 3.75V3.75ZM5.202 6.96C4.90199 6.86553 4.59273 6.80343 4.2795 6.77475C4.1035 6.75801 3.92679 6.74975 3.75 6.75C0.75 6.75 0 9 0 9.75C0 10.2502 0.24975 10.5 0.75 10.5H3.912C3.80082 10.2659 3.74537 10.0092 3.75 9.75C3.75 8.9925 4.03275 8.2185 4.5675 7.572C4.74975 7.3515 4.962 7.14525 5.202 6.96ZM3.69 7.5C3.24612 8.16695 3.00633 8.94886 3 9.75H0.75C0.75 9.555 0.873 8.9775 1.32 8.457C1.72875 7.98 2.439 7.515 3.69 7.50075V7.5ZM1.125 4.125C1.125 3.52826 1.36205 2.95597 1.78401 2.53401C2.20597 2.11205 2.77826 1.875 3.375 1.875C3.97174 1.875 4.54403 2.11205 4.96599 2.53401C5.38795 2.95597 5.625 3.52826 5.625 4.125C5.625 4.72174 5.38795 5.29403 4.96599 5.71599C4.54403 6.13795 3.97174 6.375 3.375 6.375C2.77826 6.375 2.20597 6.13795 1.78401 5.71599C1.36205 5.29403 1.125 4.72174 1.125 4.125V4.125ZM3.375 2.625C2.97718 2.625 2.59564 2.78304 2.31434 3.06434C2.03304 3.34564 1.875 3.72718 1.875 4.125C1.875 4.52282 2.03304 4.90436 2.31434 5.18566C2.59564 5.46696 2.97718 5.625 3.375 5.625C3.77282 5.625 4.15436 5.46696 4.43566 5.18566C4.71696 4.90436 4.875 4.52282 4.875 4.125C4.875 3.72718 4.71696 3.34564 4.43566 3.06434C4.15436 2.78304 3.77282 2.625 3.375 2.625Z" fill="black"/>
</svg>
