<svg width="14" height="15" viewBox="0 0 14 15" fill="none" xmlns="http://www.w3.org/2000/svg">
<path fill-rule="evenodd" clip-rule="evenodd" d="M13.9825 7.31477L13.1338 12.521C12.985 13.7285 11.4887 14.166 10.5 14.166H4.97875C4.80375 14.166 4.64625 14.1223 4.515 14.0435L3.255 13.291H1.75C0.8225 13.291 0 12.4685 0 11.541V8.04102C0 7.11352 0.8225 6.27352 1.75 6.29102H3.5C4.29625 6.29102 4.71625 5.89727 5.59125 4.93477C6.3875 4.05977 6.36125 3.35977 6.1425 2.07352C6.0725 1.63602 6.195 1.19852 6.51 0.831016C6.85125 0.419766 7.3675 0.166016 7.875 0.166016C9.47625 0.166016 10.5 3.41227 10.5 4.54977L10.4825 5.40727H12.2675C13.2825 5.40727 13.9738 6.10727 14 7.13102C14 7.22727 13.9825 7.31477 13.9825 7.31477ZM12.2588 6.27352H10.5175C9.905 6.27352 9.61625 6.02852 9.61625 5.42477L9.6425 4.52352C9.6425 3.41227 8.61875 1.02352 7.8925 1.02352C7.455 1.02352 6.9475 1.46102 7.0175 1.89852C7.23625 3.28102 7.315 4.33102 6.23875 5.52102C5.34625 6.50977 4.69 7.16602 3.5 7.16602V12.416L4.96125 13.291H10.5C11.1388 13.291 12.2062 13.0198 12.25 12.416L12.2675 12.3985L13.1425 7.14852C13.1163 6.58852 12.81 6.27352 12.2675 6.27352H12.2588Z" fill="#FFFFD3"/>
</svg>
