<svg width="17" height="16" viewBox="0 0 17 16" fill="none" xmlns="http://www.w3.org/2000/svg">
<path d="M13.1967 4.93392C13.4487 4.68192 13.5874 4.34725 13.5874 3.99125C13.5874 3.63525 13.4487 3.30059 13.1967 3.04859L12.1394 1.99125C11.8874 1.73925 11.5527 1.60059 11.1967 1.60059C10.8407 1.60059 10.506 1.73925 10.2547 1.99059L3.16669 9.05659V11.9999H6.10869L13.1967 4.93392ZM11.1967 2.93392L12.2547 3.99059L11.1947 5.04659L10.1374 3.98992L11.1967 2.93392ZM4.50002 10.6666V9.60992L9.19335 4.93125L10.2507 5.98859L5.55802 10.6666H4.50002ZM3.16669 13.3333H13.8334V14.6666H3.16669V13.3333Z" fill="black"/>
</svg>
