<svg width="48" height="48" viewBox="0 0 48 48" fill="none" xmlns="http://www.w3.org/2000/svg">
<path d="M29.6134 27.5161C31.0658 25.5342 31.7163 23.0769 31.4348 20.6359C31.1533 18.1949 29.9605 15.9502 28.095 14.3508C26.2295 12.7515 23.829 11.9156 21.3736 12.0102C18.9183 12.1048 16.5891 13.123 14.8523 14.8611C13.1154 16.5992 12.0988 18.9291 12.006 21.3845C11.9131 23.8399 12.7508 26.2399 14.3515 28.1042C15.9521 29.9685 18.1977 31.1598 20.6389 31.4395C23.0801 31.7193 25.5369 31.067 27.5179 29.6131H27.5164C27.5614 29.6731 27.6094 29.7302 27.6634 29.7857L33.4384 35.5606C33.7196 35.8421 34.1012 36.0003 34.4991 36.0005C34.897 36.0006 35.2787 35.8427 35.5601 35.5614C35.8416 35.2801 35.9998 34.8986 35.9999 34.5007C36.0001 34.1028 35.8421 33.7211 35.5609 33.4397L29.7859 27.6646C29.7322 27.6104 29.6746 27.5602 29.6134 27.5147V27.5161ZM30.0004 21.7502C30.0004 22.8336 29.787 23.9064 29.3724 24.9073C28.9578 25.9082 28.3501 26.8177 27.584 27.5838C26.8179 28.3499 25.9084 28.9576 24.9075 29.3722C23.9066 29.7868 22.8338 30.0002 21.7504 30.0002C20.667 30.0002 19.5942 29.7868 18.5932 29.3722C17.5923 28.9576 16.6828 28.3499 15.9167 27.5838C15.1507 26.8177 14.543 25.9082 14.1284 24.9073C13.7138 23.9064 13.5004 22.8336 13.5004 21.7502C13.5004 19.5621 14.3696 17.4637 15.9167 15.9165C17.4639 14.3693 19.5623 13.5002 21.7504 13.5002C23.9384 13.5002 26.0368 14.3693 27.584 15.9165C29.1312 17.4637 30.0004 19.5621 30.0004 21.7502Z" fill="black" fill-opacity="0.92"/>
</svg>
