<svg width="22" height="24" viewBox="0 0 22 24" fill="none" xmlns="http://www.w3.org/2000/svg">
<path d="M8.8125 9.8125C8.92853 9.8125 9.03981 9.85859 9.12186 9.94064C9.20391 10.0227 9.25 10.134 9.25 10.25V15.5C9.25 15.616 9.20391 15.7273 9.12186 15.8094C9.03981 15.8914 8.92853 15.9375 8.8125 15.9375C8.69647 15.9375 8.58519 15.8914 8.50314 15.8094C8.42109 15.7273 8.375 15.616 8.375 15.5V10.25C8.375 10.134 8.42109 10.0227 8.50314 9.94064C8.58519 9.85859 8.69647 9.8125 8.8125 9.8125V9.8125ZM11 9.8125C11.116 9.8125 11.2273 9.85859 11.3094 9.94064C11.3914 10.0227 11.4375 10.134 11.4375 10.25V15.5C11.4375 15.616 11.3914 15.7273 11.3094 15.8094C11.2273 15.8914 11.116 15.9375 11 15.9375C10.884 15.9375 10.7727 15.8914 10.6906 15.8094C10.6086 15.7273 10.5625 15.616 10.5625 15.5V10.25C10.5625 10.134 10.6086 10.0227 10.6906 9.94064C10.7727 9.85859 10.884 9.8125 11 9.8125V9.8125ZM13.625 10.25C13.625 10.134 13.5789 10.0227 13.4969 9.94064C13.4148 9.85859 13.3035 9.8125 13.1875 9.8125C13.0715 9.8125 12.9602 9.85859 12.8781 9.94064C12.7961 10.0227 12.75 10.134 12.75 10.25V15.5C12.75 15.616 12.7961 15.7273 12.8781 15.8094C12.9602 15.8914 13.0715 15.9375 13.1875 15.9375C13.3035 15.9375 13.4148 15.8914 13.4969 15.8094C13.5789 15.7273 13.625 15.616 13.625 15.5V10.25Z" fill="black"/>
<path fill-rule="evenodd" clip-rule="evenodd" d="M16.6875 7.625C16.6875 7.85706 16.5953 8.07962 16.4312 8.24372C16.2671 8.40781 16.0446 8.5 15.8125 8.5H15.375V16.375C15.375 16.8391 15.1906 17.2842 14.8624 17.6124C14.5342 17.9406 14.0891 18.125 13.625 18.125H8.375C7.91087 18.125 7.46575 17.9406 7.13756 17.6124C6.80937 17.2842 6.625 16.8391 6.625 16.375V8.5H6.1875C5.95544 8.5 5.73288 8.40781 5.56878 8.24372C5.40469 8.07962 5.3125 7.85706 5.3125 7.625V6.75C5.3125 6.51794 5.40469 6.29538 5.56878 6.13128C5.73288 5.96719 5.95544 5.875 6.1875 5.875H9.25C9.25 5.64294 9.34219 5.42038 9.50628 5.25628C9.67038 5.09219 9.89294 5 10.125 5H11.875C12.1071 5 12.3296 5.09219 12.4937 5.25628C12.6578 5.42038 12.75 5.64294 12.75 5.875H15.8125C16.0446 5.875 16.2671 5.96719 16.4312 6.13128C16.5953 6.29538 16.6875 6.51794 16.6875 6.75V7.625ZM7.60325 8.5L7.5 8.55163V16.375C7.5 16.6071 7.59219 16.8296 7.75628 16.9937C7.92038 17.1578 8.14294 17.25 8.375 17.25H13.625C13.8571 17.25 14.0796 17.1578 14.2437 16.9937C14.4078 16.8296 14.5 16.6071 14.5 16.375V8.55163L14.3967 8.5H7.60325ZM6.1875 7.625V6.75H15.8125V7.625H6.1875Z" fill="black"/>
</svg>
