<svg width="48" height="48" viewBox="0 0 48 48" fill="none" xmlns="http://www.w3.org/2000/svg">
<path d="M35.2526 14.9101C35.3927 15.0507 35.4714 15.2411 35.4714 15.4396C35.4714 15.6381 35.3927 15.8285 35.2526 15.9691L33.6881 17.5351L30.6881 14.5351L32.2526 12.9691C32.3932 12.8285 32.584 12.7495 32.7828 12.7495C32.9817 12.7495 33.1724 12.8285 33.3131 12.9691L35.2526 14.9086V14.9101ZM32.6276 18.5941L29.6276 15.5941L19.4081 25.8151C19.3255 25.8976 19.2634 25.9983 19.2266 26.1091L18.0191 29.7301C17.9972 29.7961 17.9941 29.8669 18.0101 29.9346C18.0261 30.0023 18.0607 30.0642 18.1098 30.1133C18.159 30.1625 18.2209 30.1971 18.2886 30.2131C18.3563 30.2291 18.4271 30.226 18.4931 30.2041L22.1141 28.9966C22.2247 28.9602 22.3254 28.8986 22.4081 28.8166L32.6276 18.5956V18.5941Z" fill="black" fill-opacity="0.92"/>
<path fill-rule="evenodd" clip-rule="evenodd" d="M13.5 32.25C13.5 32.8467 13.7371 33.419 14.159 33.841C14.581 34.2629 15.1533 34.5 15.75 34.5H32.25C32.8467 34.5 33.419 34.2629 33.841 33.841C34.2629 33.419 34.5 32.8467 34.5 32.25V23.25C34.5 23.0511 34.421 22.8603 34.2803 22.7197C34.1397 22.579 33.9489 22.5 33.75 22.5C33.5511 22.5 33.3603 22.579 33.2197 22.7197C33.079 22.8603 33 23.0511 33 23.25V32.25C33 32.4489 32.921 32.6397 32.7803 32.7803C32.6397 32.921 32.4489 33 32.25 33H15.75C15.5511 33 15.3603 32.921 15.2197 32.7803C15.079 32.6397 15 32.4489 15 32.25V15.75C15 15.5511 15.079 15.3603 15.2197 15.2197C15.3603 15.079 15.5511 15 15.75 15H25.5C25.6989 15 25.8897 14.921 26.0303 14.7803C26.171 14.6397 26.25 14.4489 26.25 14.25C26.25 14.0511 26.171 13.8603 26.0303 13.7197C25.8897 13.579 25.6989 13.5 25.5 13.5H15.75C15.1533 13.5 14.581 13.7371 14.159 14.159C13.7371 14.581 13.5 15.1533 13.5 15.75V32.25Z" fill="black" fill-opacity="0.92"/>
</svg>
